<?xml version="1.0" encoding="utf-8"?>
<!-- Generator: Adobe Illustrator 19.1.0, SVG Export Plug-In . SVG Version: 6.00 Build 0)  -->
<svg version="1.1" id="Layer_1" xmlns="http://www.w3.org/2000/svg" xmlns:xlink="http://www.w3.org/1999/xlink" x="0px" y="0px"
	 viewBox="0 143.1 595.3 387.4" style="enable-background:new 0 143.1 595.3 387.4;" xml:space="preserve">
<style type="text/css">
	.st0{fill:#3399CC;}
</style>
<g transform="translate(0.000000,2000.000000) scale(0.100000,-0.100000)">
	<path class="st0" d="M3544.7,18566.2c-60.6-3.1-139.2-10.1-185-16.8c-44.6-6.5-87.1-17.2-149.9-38
		c-283.2-94.2-560.3-291.1-734.6-521.5c-23.3-30.9-61.2-89.6-85-131.5c-12.6-21.7-23-40.4-23.6-41c-0.3-0.6-17.7,6.4-38.2,15.9
		c-107.4,48.9-212.9,77.4-343.4,92.7c-65.8,7.9-215.6,7.9-275.3,0.3c-119.9-15.6-218.4-45.3-327.3-98.5
		c-131.5-64.5-237.3-139.2-339.1-239.5c-133.7-131.8-207.7-252.6-269.4-439.5c-29.7-89.3-49.9-180.2-57.5-258.5l-3.7-38.2
		l-73.4-36.7c-90.6-44.9-139.2-76.2-211-134.9c-100-81.6-197.6-189-262.1-288.7c-81.7-125.4-137.7-283.5-160.3-451.1
		c-6.7-49.9-8-188.4-1.9-237.1c26.9-218.1,103.4-398.8,240.4-570.4c29.9-37.3,116.2-125.7,163.9-167.9
		c127.8-112.8,241-169.5,434.9-217.5c112.5-27.8,221.4-35.2,634-41.3c518.1-8,2626.3-14.4,2919.3-9.2
		c475.9,8.6,654.8,29.4,821.2,94.8c119,46.8,216.5,98.2,293.6,154.5c273.1,199.4,429.7,509.2,441.1,873.2
		c4.6,150.7-22.7,289-86.9,438.8c-59.4,138.6-128.8,239.8-240.7,351.8c-153.5,153.2-324.2,254.7-510.8,303
		c-21.4,5.5-40.1,11-41,11.9c-0.9,0.9,2.1,34.3,7.3,74.4c8,64.5,8.9,81.3,8.6,155c0,114.7-10.4,198.5-38.3,308.3
		c-90.5,361.5-322.1,689.1-621.2,880c-139.8,89.3-411.1,197.5-539.2,215.6C3816,18568.9,3670.4,18572.3,3544.7,18566.2z
		 M3826.1,18391.8c62.7-4.9,104.9-15.3,190.3-46.2c90.5-32.7,196.7-79.5,271.6-119.6c114.7-61.8,241.9-171.3,339.1-292.4
		c132.8-165.7,227.2-365.8,267.9-569.2c16.5-82.3,19.9-118.9,19.9-211c-0.3-77.1-0.9-90.2-10.1-159.1
		c-13.1-98.5-15.3-140.7-8.5-160.9c6.1-19,19.6-35.5,36.7-45.6c7.4-4.3,30.3-12.6,51.1-18c20.8-5.8,61.2-16.9,89.3-24.5
		c153.5-41.9,292.1-123.3,417.8-245c60.9-59.4,108.9-117.5,148.6-180.5c23.5-37.3,64.8-122.6,83.5-172.8
		c43.4-116.6,58.1-204,54.8-325.4c-7.3-253.2-99.1-478.3-261.5-643.2c-73.4-74.3-148.4-126.6-254.8-178
		c-191.8-92.4-294.2-111.6-671-125.7c-123.2-4.6-726.7-9.5-955.8-7.7c-110.1,0.9-462.4,2.2-782.9,3.1c-320.5,0.9-650.9,2.2-734,3
		c-83.2,0.9-253.9,2.2-379.3,3.1c-356.9,2.7-595.7,8.3-709.5,17.1c-59.6,4.6-99.1,10.7-152.9,24.1c-190.9,48-286,103.7-431.5,252.6
		c-51.7,52.9-85.7,94.5-120.9,148c-75.5,115-121.4,233.1-142.5,367.3c-5.8,38.3-6.7,55.6-6.7,129.7c0,96.9,4.6,136.4,24.5,215.6
		c41.9,167,114.7,295.4,241.3,424.8c97.5,100,170.3,153.5,285,209.9c71,34.8,91.8,47.1,112.9,66.3c34.5,31.8,46.4,61.8,50.5,126.6
		c4.2,73.4,22,154.5,55.3,251.4c39.1,114.7,77.1,187.2,140.7,267.6c30.6,38.9,119.3,127.5,159.3,159.3
		c122,97.3,256,166.4,384.1,199.1c148.6,37.6,344.4,31.9,507.1-14.9c58.4-16.9,92.1-30.6,167.6-68.5c66.4-33.3,71.6-35.2,92.7-36.7
		c20.2-1.2,23.9-0.6,41.9,8.3c11.6,5.8,23,14.1,28.4,21.1c4.9,6.1,29.1,47.1,54.2,90.8c64.5,113.5,99.3,162.7,168.5,238.6
		c162.7,177.7,409.3,329.7,636.1,391.5C3417.8,18391.5,3667.7,18404.4,3826.1,18391.8z"/>
	<path class="st0" d="M4128.9,17345.5c-4.9-1.9-14.1-6.7-19.9-10.7c-5.8-3.7-102.1-98.2-214.1-209.8
		c-585.4-583.5-1351.5-1343.9-1355.8-1345.7c-0.6-0.3-153.5,150.8-339.8,335.8c-235.8,234.3-343.5,339.1-354.5,345.6
		c-14.1,8.3-18.7,9.1-40.3,9.1c-21.7,0-26.3-0.9-41.3-9.5c-41.3-23.3-56.6-72.5-35.5-114.1c10.1-19.3,747.5-753,770.4-766.4
		c14.1-8.3,18.7-9.2,40.3-9.2c20.5,0,27.2,1.2,38.8,7.6c16.9,8.9,17.2,9.2,687.5,675.6c950.6,945.1,963.4,957.6,971.4,974.4
		c8.8,18.4,9.8,45.3,2.4,66.7c-5.8,16.8-25.1,37.9-42.6,46.5C4181.8,17348.6,4143,17350.7,4128.9,17345.5z"/>
</g>
</svg>
