<?xml version="1.0" encoding="utf-8"?>
<!-- Generator: Adobe Illustrator 19.1.0, SVG Export Plug-In . SVG Version: 6.00 Build 0)  -->
<svg version="1.1" id="Layer_1" xmlns="http://www.w3.org/2000/svg" xmlns:xlink="http://www.w3.org/1999/xlink" x="0px" y="0px"
	 viewBox="256.4 344.6 108 73.4" style="enable-background:new 256.4 344.6 108 73.4;" xml:space="preserve">
<style type="text/css">
	.st0{fill:#3590CE;}
	.st1{display:none;}
</style>
<g>
	<g>
		<path class="st0" d="M311.6,346c0.9,0.9,1.3,2,1.4,3.3v9.4c0,1.3-0.5,2.4-1.4,3.3s-2,1.3-3.3,1.4h-47.1c-1.3,0-2.4-0.5-3.3-1.4
			s-1.3-2-1.4-3.3v-9.4c0-1.3,0.5-2.4,1.4-3.3s2-1.3,3.3-1.4h47.1C309.6,344.6,310.7,345.1,311.6,346z M311.6,369.5
			c0.9,0.9,1.3,2,1.4,3.3v9.4c0,1.3-0.5,2.4-1.4,3.3s-2,1.3-3.3,1.4h-47.1c-1.3,0-2.4-0.5-3.3-1.4s-1.3-2-1.4-3.3v-9.4
			c0-1.3,0.5-2.4,1.4-3.3c0.9-0.9,2-1.3,3.3-1.4h47.1C309.6,368.2,310.7,368.6,311.6,369.5z M311.6,393.1c0.9,0.9,1.3,2,1.4,3.3v9.4
			c0,1.3-0.5,2.4-1.4,3.3c-0.9,0.9-2,1.3-3.3,1.4h-47.1c-1.3,0-2.4-0.5-3.3-1.4c-0.9-0.9-1.3-2-1.4-3.3v-9.4c0-1.3,0.5-2.4,1.4-3.3
			s2-1.3,3.3-1.4h47.1C309.6,391.7,310.7,392.2,311.6,393.1z M265.9,349.3h-4.7v9.4h4.7V349.3z M265.9,372.8h-4.7v9.4h4.7V372.8z
			 M265.9,396.4h-4.7v9.4h4.7V396.4z M275.3,349.3h-4.7v9.4h4.7V349.3z M275.3,372.8h-4.7v9.4h4.7V372.8z M275.3,396.4h-4.7v9.4h4.7
			V396.4z M284.7,349.3H280v9.4h4.7V349.3z M284.7,372.8H280v9.4h4.7V372.8z M284.7,396.4H280v9.4h4.7V396.4z M294.1,349.3h-4.7v9.4
			h4.7V349.3z M294.1,372.8h-4.7v9.4h4.7V372.8z M294.1,396.4h-4.7v9.4h4.7V396.4z M308.3,349.3h-4.7v4.7h4.7V349.3z"/>
	</g>
	<g>
		<path class="st0" d="M326,393c-1.8-0.4-3.4-1.3-4.7-2.7c-1.3-1.4-2.1-2.9-2.6-4.6c-0.4-1.7-0.4-3.5,0-5.2l5.5,5.7l5.5-1.5l1.4-5.6
			l-5.6-5.8c1.7-0.5,3.4-0.5,5,0c1.7,0.4,3.2,1.3,4.5,2.7c1.3,1.4,2.2,2.9,2.6,4.6c0.4,1.7,0.4,3.5,0,5.2c-0.4-0.3-0.3-0.2,0.2,0.4
			l1,0.9l-4.9,5.2l2.5,2.6l-1.6,1.7l-1.5-1.6c-0.9-1-1.6-1.7-2.1-2.2C329.6,393.3,327.8,393.4,326,393z M343.7,400.6l-2.5-2.6
			l-12.5,12.8l-1.4,3l-6.3,4.1l-1-1.1l4-6.5l2.8-1.5l12.5-12.8l-2.6-2.7l20.8-21.5l7.1,7.3L343.7,400.6z M360.7,409.7
			c0.9,1,1.4,2.1,1.4,3.4c0,1.3-0.5,2.4-1.4,3.4c-0.5,0.5-1,0.8-1.5,1.1c-0.6,0.2-1.1,0.4-1.7,0.4s-1.2-0.1-1.7-0.4
			c-0.6-0.2-1.1-0.6-1.5-1.1L343.2,405l6.7-6.7L360.7,409.7z"/>
	</g>
</g>
<g id="sh5m53.tif" class="st1">
	
		<image style="display:inline;overflow:visible;" width="216" height="144" id="Layer_1_1_" xlink:href="91DC28FD8F736DCD.png"  transform="matrix(0.5 0 0 0.5 303.209 364.2398)">
	</image>
</g>
</svg>
