<?xml version="1.0" encoding="utf-8"?>
<!-- Generator: Adobe Illustrator 19.1.0, SVG Export Plug-In . SVG Version: 6.00 Build 0)  -->
<svg version="1.1" id="Layer_1" xmlns="http://www.w3.org/2000/svg" xmlns:xlink="http://www.w3.org/1999/xlink" x="0px" y="0px"
	 viewBox="188.7 301.8 140.7 83.5" style="enable-background:new 188.7 301.8 140.7 83.5;" xml:space="preserve">
<style type="text/css">
	.st0{fill:#3590CE;}
</style>
<g>
	<path class="st0" d="M202.6,355.9c5.5,0,9.9-4.4,9.9-9.9c0-5.5-4.4-9.9-9.9-9.9c-5.5,0-9.9,4.4-9.9,9.9S197.1,355.9,202.6,355.9z"
		/>
	<path class="st0" d="M238.6,320.5v12.9h12.9C251.5,326.3,245.7,320.5,238.6,320.5z"/>
	<path class="st0" d="M210.7,356.2c-2.2,1.8-5,2.8-8.1,2.8c-3.1,0-5.9-1.1-8.1-2.8c-3.5,2.4-5.8,6.4-5.8,11v7.2
		c0,3.7,7,5.5,13.9,5.5c7,0,13.9-1.8,13.9-5.5v-7.2C216.5,362.6,214.2,358.6,210.7,356.2z"/>
	<path class="st0" d="M234.3,323.3c-8,0-14.5,6.5-14.5,14.5c0,8,6.5,14.5,14.5,14.5s14.5-6.5,14.5-14.5v-1.6h-12.9v-12.9H234.3z
		 M245.5,339.4c-0.8,5.5-5.5,9.8-11.3,9.8c-6.3,0-11.4-5.1-11.4-11.4c0-5.7,4.3-10.5,9.8-11.3v12.8H245.5z"/>
	<path class="st0" d="M264.8,307.5H238v-3.8c0-1.1-0.9-2-2-2s-2,0.9-2,2v3.8h-26.8c-3.7,0-6.7,3-6.7,6.7V333c0.6-0.1,1.3-0.2,2-0.2
		c0.7,0,1.3,0.1,2,0.2v-18.8c0-1.5,1.2-2.7,2.7-2.7h57.5c1.5,0,2.7,1.2,2.7,2.7v43.6c0,1.5-1.2,2.7-2.7,2.7h-46.5
		c0.5,1.2,0.9,2.6,1.2,3.9h5.9l-3.4,8.9c-0.4,1,0.1,2.1,1.1,2.5c0.2,0.1,0.5,0.1,0.7,0.1c0.8,0,1.5-0.5,1.8-1.3l3.9-10.3h13
		l3.9,10.3c0.3,0.8,1,1.3,1.8,1.3c0.2,0,0.5,0,0.7-0.1c1-0.4,1.5-1.5,1.1-2.5l-3.4-8.9h18c3.7,0,6.7-3,6.7-6.7v-43.6
		C271.4,310.5,268.5,307.5,264.8,307.5z"/>
	<path class="st0" d="M316,372.8c-0.9,0.9-1.5,1.9-1.9,3h-24.5c-0.3-1-0.8-1.9-1.6-2.7c-0.3-0.3-0.7-0.6-1-0.9l1.1-3.5h35.8
		c1,0,1.8-0.8,1.8-1.8l3.6-20.4c0-1-0.8-1.8-1.8-1.8l-39.6-5.2l-3.7-3.7c0.3-1.2,0-2.5-0.9-3.5c-1.4-1.4-3.7-1.4-5.1,0
		c-1.4,1.4-1.4,3.7,0,5.1c0.9,0.9,2.3,1.2,3.5,0.9l3.2,3.2v22.8l-0.1,0l-2.1,6.6c-1.7,0-3.5,0.7-4.8,2c-2.9,2.7-3,7.3-0.3,10.2
		c2.7,2.9,7.3,3,10.2,0.3c0.9-0.9,1.5-1.9,1.9-3h24.5c0.3,1,0.8,1.9,1.6,2.7c2.7,2.9,7.3,3,10.2,0.3c2.9-2.7,3-7.3,0.3-10.2
		C323.5,370.2,318.9,370.1,316,372.8z M289.7,355.4h1.7c0-0.2,0-0.3,0-0.5c0-0.3,0-0.6,0-0.9h-1.7v-2.2h2c0.4-1.6,1.1-3,2.1-4.1
		c1.7-2,4.1-3.1,7-3.1c1.8,0,3.5,0.4,4.6,0.9l-0.9,3.5c-0.8-0.3-2.1-0.7-3.4-0.7c-1.4,0-2.8,0.5-3.7,1.6c-0.5,0.5-0.8,1.2-1,2h7.6
		v2.2h-8c0,0.3,0,0.6,0,0.9c0,0.2,0,0.3,0,0.5h8.1v2.2h-7.7c0.2,0.9,0.5,1.6,1,2.1c1,1.1,2.4,1.6,3.9,1.6c1.4,0,2.8-0.5,3.5-0.8
		l0.7,3.4c-1,0.6-2.8,1.2-4.8,1.2c-3,0-5.7-1.2-7.4-3.5c-0.8-1-1.4-2.3-1.7-4h-2V355.4z"/>
</g>
</svg>
