<?xml version="1.0" encoding="utf-8"?>
<!-- Generator: Adobe Illustrator 19.1.0, SVG Export Plug-In . SVG Version: 6.00 Build 0)  -->
<svg version="1.1" id="Layer_1" xmlns="http://www.w3.org/2000/svg" xmlns:xlink="http://www.w3.org/1999/xlink" x="0px" y="0px"
	 viewBox="0 0 9 12" style="enable-background:new 0 0 9 12;" xml:space="preserve">
<style type="text/css">
	.st0{fill:#3790CE;}
</style>
<g>
	<path class="st0" d="M9,0.8v9c0,0.2-0.1,0.4-0.2,0.5s-0.3,0.2-0.5,0.2H4.5V12l-1.1-1.1L2.2,12v-1.5H0.8c-0.2,0-0.4-0.1-0.5-0.2
		S0,10,0,9.8v-9c0-0.2,0.1-0.4,0.2-0.5S0.5,0,0.8,0h7.5c0.2,0,0.4,0.1,0.5,0.2S9,0.5,9,0.8z M8.2,8.2H0.8v1.5h1.5V9h2.2v0.8h3.8V8.2
		z M8.2,0.8H1.5v6.8h6.8V0.8z M3,1.5H2.2v0.8H3V1.5z M3,3H2.2v0.8H3V3z M3,4.5H2.2v0.8H3V4.5z M3,6.8H2.2V6H3V6.8z"/>
</g>
</svg>
