<?xml version="1.0" encoding="utf-8"?>
<!-- Generator: Adobe Illustrator 19.1.0, SVG Export Plug-In . SVG Version: 6.00 Build 0)  -->
<svg version="1.1" id="Layer_1" xmlns="http://www.w3.org/2000/svg" xmlns:xlink="http://www.w3.org/1999/xlink" x="0px" y="0px"
	 viewBox="0 0 10.5 12" style="enable-background:new 0 0 10.5 12;" xml:space="preserve">
<style type="text/css">
	.st0{fill:#3790CE;}
</style>
<g>
	<path class="st0" d="M3.8,7.5L6,9.8L3.8,12v-1.5H3c-0.6,0-1.1-0.3-1.5-0.7s-0.7-1-0.7-1.5V3.5C0.5,3.4,0.3,3.2,0.2,3S0,2.5,0,2.2
		c0-0.4,0.2-0.8,0.4-1.1s0.6-0.4,1.1-0.4c0.4,0,0.8,0.2,1.1,0.4S3,1.8,3,2.2C3,2.5,2.9,2.8,2.8,3S2.5,3.4,2.2,3.5v4.7
		c0,0.2,0.1,0.4,0.2,0.5S2.8,9,3,9h0.8V7.5z M0.9,1.6C0.7,1.8,0.6,2,0.6,2.2s0.1,0.5,0.3,0.6s0.4,0.3,0.6,0.3S2,3.1,2.1,2.9
		s0.3-0.4,0.3-0.6S2.3,1.8,2.1,1.6S1.8,1.4,1.5,1.3C1.2,1.4,1,1.4,0.9,1.6z M10.3,9c0.1,0.2,0.2,0.5,0.2,0.8c0,0.4-0.2,0.8-0.4,1.1
		S9.4,11.2,9,11.3c-0.4,0-0.8-0.2-1.1-0.4s-0.4-0.6-0.4-1.1c0-0.3,0.1-0.5,0.2-0.8S8,8.6,8.2,8.5V3.8c0-0.2-0.1-0.4-0.2-0.5
		S7.7,3,7.5,3H6.8v1.5L4.5,2.2L6.8,0v1.5h0.8c0.6,0,1.1,0.3,1.5,0.7s0.7,1,0.7,1.5v1.9c0,1.1,0,2.1,0,2.8C10,8.6,10.2,8.8,10.3,9z
		 M9.6,10.4c0.2-0.2,0.3-0.4,0.3-0.6S9.8,9.3,9.6,9.1S9.2,8.9,9,8.9S8.5,8.9,8.4,9.1S8.1,9.5,8.1,9.8s0.1,0.5,0.3,0.6
		s0.4,0.3,0.6,0.3C9.2,10.6,9.5,10.6,9.6,10.4z"/>
</g>
</svg>
