<?xml version="1.0" encoding="utf-8"?>
<!-- Generator: Adobe Illustrator 19.1.0, SVG Export Plug-In . SVG Version: 6.00 Build 0)  -->
<svg version="1.1" id="Layer_1" xmlns="http://www.w3.org/2000/svg" xmlns:xlink="http://www.w3.org/1999/xlink" x="0px" y="0px"
	 viewBox="0 0 16 16" style="enable-background:new 0 0 16 16;" xml:space="preserve">
<style type="text/css">
	.st0{fill:#3790CE;}
</style>
<g>
	<path class="st0" d="M13,4.5c0.3,0.2,0.7,0.3,1,0.3c-0.3,0.6-0.7,1.1-1.1,1.7c-0.4,0.6-0.9,1.2-1.5,1.7c-0.4,0.3-0.8,0.7-1.2,1
		L9,10v3l-3,3v-3l2-2c-0.5,0.2-1.1,0.4-1.8,0.6C5.5,11.9,5.1,12,5,12l-1-1c0-0.1,0.1-0.5,0.4-1.2C4.6,9.1,4.8,8.5,5,8l-2,2H0l3-3h3
		c0.2-0.3,0.5-0.7,0.8-1.2c0.3-0.5,0.6-0.9,1-1.2c0.6-0.6,1.1-1,1.7-1.5c0.6-0.4,1.2-0.8,1.7-1.1c0.1,0.4,0.2,0.7,0.3,1
		c0.2,0.3,0.4,0.6,0.6,0.9C12.4,4.1,12.7,4.3,13,4.5z M14.9,0.3c-0.7,0.2-1.6,0.6-2.6,1.1C12.4,2.1,12.6,2.6,13,3
		c0.4,0.4,0.9,0.6,1.6,0.7c0.5-1.1,0.9-2,1.1-2.7C15.9,0.4,16,0,16,0C16,0,15.6,0.1,14.9,0.3z"/>
</g>
</svg>
