<?xml version="1.0" encoding="utf-8"?>
<!-- Generator: Adobe Illustrator 19.1.0, SVG Export Plug-In . SVG Version: 6.00 Build 0)  -->
<svg version="1.1" id="Layer_1" xmlns="http://www.w3.org/2000/svg" xmlns:xlink="http://www.w3.org/1999/xlink" x="0px" y="0px"
	 viewBox="0 0 12.3 9.2" style="enable-background:new 0 0 12.3 9.2;" xml:space="preserve">
<style type="text/css">
	.st0{fill:#3790CE;}
</style>
<g>
	<path class="st0" d="M3.8,7.5L3.5,7.9c0,0-0.1,0.1-0.2,0.1c-0.1,0-0.1,0-0.2-0.1L0.1,4.8C0,4.7,0,4.7,0,4.6s0-0.1,0.1-0.2l3.1-3.1
		c0,0,0.1-0.1,0.2-0.1c0.1,0,0.1,0,0.2,0.1l0.3,0.3c0,0,0.1,0.1,0.1,0.2c0,0.1,0,0.1-0.1,0.2L1.2,4.6l2.6,2.6c0,0,0.1,0.1,0.1,0.2
		S3.9,7.5,3.8,7.5z M7.8,0.4L5.3,9c0,0.1-0.1,0.1-0.1,0.1c-0.1,0-0.1,0-0.2,0L4.6,9.1C4.6,9.1,4.5,9,4.5,9c0-0.1,0-0.1,0-0.2L7,0.2
		C7,0.1,7,0.1,7.1,0c0.1,0,0.1,0,0.2,0l0.4,0.1c0.1,0,0.1,0.1,0.1,0.1S7.8,0.3,7.8,0.4z M12.2,4.8L9.1,7.9c0,0-0.1,0.1-0.2,0.1
		c-0.1,0-0.1,0-0.2-0.1L8.4,7.5c0,0-0.1-0.1-0.1-0.2s0-0.1,0.1-0.2l2.6-2.6L8.4,2c0,0-0.1-0.1-0.1-0.2c0-0.1,0-0.1,0.1-0.2l0.3-0.3
		c0,0,0.1-0.1,0.2-0.1c0.1,0,0.1,0,0.2,0.1l3.1,3.1c0,0,0.1,0.1,0.1,0.2S12.2,4.7,12.2,4.8z"/>
</g>
</svg>
