<?xml version="1.0" encoding="utf-8"?>
<!-- Generator: Adobe Illustrator 19.1.0, SVG Export Plug-In . SVG Version: 6.00 Build 0)  -->
<svg version="1.1" id="Layer_1" xmlns="http://www.w3.org/2000/svg" xmlns:xlink="http://www.w3.org/1999/xlink" x="0px" y="0px"
	 viewBox="0 0 595.3 841.9" style="enable-background:new 0 0 595.3 841.9;" xml:space="preserve">
<style type="text/css">
	.st0{fill:#3399CC;}
	.st1{fill:#FFFFFF;}
</style>
<g>
	<path class="st0" d="M595,224.3v-53.9H541V189H324.6v-18.6h-53.9V189H54.2v-18.6H0.3v53.9h18.6v154.2H0.3v53.9h18.6v158.3H0.3v53.9
		h53.9v-22.7h216.4v22.7h53.9v-22.7H541v22.7H595v-53.9h-18.6V432.4H595v-53.9h-18.6V224.3H595z M557.8,378.5H541v53.9h16.7v158.3
		H541v12.6H324.6v-12.6h-53.9v12.6H54.2v-12.6H37.5V432.4h16.7v-53.9H37.5V224.3h16.7v-16.7h216.4v16.7h53.9v-16.7H541v16.7h16.7
		V378.5z"/>
	<rect x="270.7" y="378.5" class="st0" width="53.9" height="53.9"/>
</g>
<rect x="134" y="725.9" class="st1" width="86" height="61"/>
</svg>
