<?xml version="1.0" encoding="utf-8"?>
<!-- Generator: Adobe Illustrator 19.1.0, SVG Export Plug-In . SVG Version: 6.00 Build 0)  -->
<svg version="1.1" id="Layer_1" xmlns="http://www.w3.org/2000/svg" xmlns:xlink="http://www.w3.org/1999/xlink" x="0px" y="0px"
	 viewBox="179.3 217.2 288.7 357.2" style="enable-background:new 179.3 217.2 288.7 357.2;" xml:space="preserve">
<style type="text/css">
	.st0{fill:#3399CC;}
</style>
<g transform="translate(0,-952.36218)">
	<path class="st0" d="M203.3,1169.6c-13.2,0-24,10.8-24,24v288.2c0,13.2,10.8,24,24,24h12.1v3.2c0,9.8,7.9,17.9,17.7,17.9h217.1
		c9.8,0,17.9-8.1,17.9-17.9V1430c0-9.8-8.1-17.9-17.9-17.9h-15.8v-151.8c0-0.2,0-0.4,0-0.6c0.1-0.5,0.1-1,0-1.5c0-0.1,0-0.1,0-0.2
		c0-0.1,0-0.2,0-0.4c0-0.1,0-0.2,0-0.4c-0.1-0.1-0.1-0.1-0.2-0.2c0-0.1,0-0.2,0-0.4c-0.1-0.1-0.1-0.1-0.2-0.2c0-0.1,0-0.2,0-0.4
		c-0.1-0.1-0.1-0.1-0.2-0.2c-0.1-0.1-0.1-0.1-0.2-0.2c-0.1-0.1-0.1-0.2-0.2-0.4c-0.1-0.1-0.1-0.1-0.2-0.2c0-0.1,0-0.1,0-0.2
		c-0.1-0.1-0.2-0.3-0.4-0.4c-0.1-0.1-0.1-0.1-0.2-0.2l-86.9-83.3c-0.1-0.1-0.2-0.3-0.4-0.4c-0.2-0.1-0.4-0.3-0.6-0.4
		c-0.2-0.1-0.4-0.3-0.6-0.4c-0.5-0.3-1.1-0.5-1.7-0.6c-0.3,0-0.6,0-0.9,0h-0.9L203.3,1169.6L203.3,1169.6z M203.3,1181.5h132.4v59.3
		c0,13.2,10.8,24,24,24h62.7v147.3H233.1c-9.8,0-17.7,8.1-17.7,17.9v63.8h-12.1c-6.7,0-12.1-5.4-12.1-12.1v-288.2
		C191.2,1186.8,196.6,1181.5,203.3,1181.5L203.3,1181.5z M347.7,1189.5l65.9,63.4h-53.8c-6.7,0-12.1-5.4-12.1-12.1L347.7,1189.5
		L347.7,1189.5z M313.6,1289.7c-2.4,0.4-4.3,2.1-4.8,4.5l-22.5,83.7c-0.9,3.2,0.9,6.5,4.1,7.4c3.2,0.9,6.5-0.9,7.4-4.1
		c0,0,0-0.1,0-0.1l22.5-83.9c0.9-3.2-1-6.4-4.2-7.3C315.3,1289.6,314.5,1289.6,313.6,1289.7z M270.7,1305.5c-0.3,0-0.5,0.1-0.7,0.2
		c-0.9,0.2-1.8,0.5-2.6,1.1l-36.3,27.5c-2.6,2-3.1,5.7-1.1,8.3c0.3,0.4,0.6,0.7,0.9,1l36.3,28.3c2.6,2,6.4,1.5,8.4-1.1
		c2-2.6,1.5-6.4-1.1-8.4c0,0,0,0,0,0l-30-23.3l30.1-22.7c2.8-1.7,3.7-5.4,2-8.2C275.3,1306.3,273,1305.2,270.7,1305.5L270.7,1305.5z
		 M334.3,1306.8c-3.2,0.6-5.4,3.7-4.8,6.9c0.3,1.6,1.2,3,2.5,3.8l30.1,22.7l-30,23.4c-2.8,1.7-3.8,5.3-2.2,8.1s5.3,3.8,8.1,2.2
		c0.5-0.3,0.9-0.6,1.3-1l36.3-28.1c2.6-2,3-5.8,1-8.4c-0.3-0.4-0.7-0.8-1.2-1.1l-36.3-27.3c-1.3-1-2.9-1.5-4.5-1.3
		C334.7,1306.8,334.5,1306.8,334.3,1306.8z M233.1,1424h217.1c3.4,0,6,2.6,6,6v78.9c0,3.4-2.6,6-6,6H233.1c-3.4,0-5.8-2.6-5.8-6
		V1430C227.3,1426.6,229.7,1424,233.1,1424z M291.9,1446c-6.4,0-11.5,2.1-15.4,6.3c-3.9,4.2-6,10.2-6,17.9c0,7.2,2,12.8,6,16.9
		c3.9,4.2,8.8,6.3,14.9,6.3c4.9,0,9.1-1.3,12.3-3.7c3.2-2.4,5.3-6.2,6.7-11.2l-8.9-2.8c-0.8,3.4-2,5.9-3.7,7.4
		c-1.8,1.6-3.9,2.2-6.3,2.2c-3.3,0-6.1-1.3-8.2-3.7c-2.1-2.5-3.2-6.5-3.2-12.3c0-5.5,1.1-9.5,3.2-11.9c2.1-2.4,5-3.5,8.4-3.5
		c2.5,0,4.4,0.7,6.1,2s3,3.2,3.5,5.6l9.1-2.2c-1-3.7-2.6-6.4-4.7-8.4C302.1,1447.7,297.5,1446,291.9,1446L291.9,1446z M334.3,1446
		c-3.5,0-6.4,0.6-8.9,1.7c-2.5,1.1-4.4,2.6-5.8,4.7c-1.3,2-2,4.2-2,6.5c0,3.6,1.5,6.6,4.3,9.1c2,1.8,5.5,3.4,10.4,4.7
		c3.8,1,6.4,1.7,7.4,2c1.6,0.6,2.7,1.1,3.3,1.9c0.6,0.8,0.9,1.7,0.9,2.8c0,1.7-0.7,3.2-2.2,4.5c-1.5,1.3-3.7,1.9-6.7,1.9
		c-2.8,0-5-0.8-6.7-2.2c-1.7-1.4-2.8-3.5-3.3-6.5l-8.9,0.7c0.6,5.1,2.3,9,5.4,11.7c3.1,2.7,7.6,4.1,13.4,4.1c4,0,7.4-0.6,10-1.7
		c2.7-1.1,4.7-2.9,6.1-5.2c1.5-2.3,2.2-4.6,2.2-7.3c0-2.9-0.6-5.3-1.9-7.3c-1.2-2-2.9-3.5-5-4.7c-2.2-1.1-5.6-2.3-10-3.3
		c-4.5-1.1-7.4-2-8.6-3c-0.9-0.8-1.3-1.7-1.3-2.8c0-1.2,0.5-2.3,1.5-3c1.5-1.1,3.6-1.7,6.3-1.7c2.6,0,4.5,0.6,5.8,1.7
		c1.3,1,2.2,2.7,2.6,5l9.3-0.4c-0.1-4.2-1.7-7.5-4.7-10C344.4,1447.4,340,1446,334.3,1446L334.3,1446z M377.1,1446
		c-3.5,0-6.6,0.6-9.1,1.7c-2.5,1.1-4.3,2.6-5.6,4.7c-1.3,2-2,4.2-2,6.5c0,3.6,1.5,6.6,4.3,9.1c2,1.8,5.5,3.4,10.4,4.7
		c3.8,1,6.2,1.7,7.3,2c1.6,0.6,2.7,1.1,3.3,1.9c0.6,0.8,0.9,1.7,0.9,2.8c0,1.7-0.7,3.2-2.2,4.5c-1.5,1.3-3.7,1.9-6.7,1.9
		c-2.8,0-5-0.8-6.7-2.2c-1.7-1.4-2.8-3.5-3.3-6.5l-8.9,0.7c0.6,5.1,2.5,9,5.6,11.7c3.1,2.7,7.6,4.1,13.4,4.1c4,0,7.2-0.6,9.9-1.7
		c2.7-1.1,4.7-2.9,6.1-5.2c1.5-2.3,2.2-4.6,2.2-7.3c0-2.9-0.6-5.3-1.9-7.3c-1.2-2-2.9-3.5-5-4.7c-2.2-1.1-5.4-2.3-9.9-3.3
		c-4.5-1.1-7.4-2-8.6-3c-0.9-0.8-1.5-1.7-1.5-2.8c0-1.2,0.5-2.3,1.5-3c1.5-1.1,3.6-1.7,6.3-1.7c2.6,0,4.7,0.6,6,1.7
		c1.3,1,2,2.7,2.4,5l9.3-0.4c-0.1-4.2-1.7-7.5-4.7-10C387,1447.4,382.8,1446,377.1,1446L377.1,1446z M254.3,1483.8v8.7h8.7v-8.7
		L254.3,1483.8L254.3,1483.8z"/>
</g>
</svg>
