<?xml version="1.0" encoding="utf-8"?>
<!-- Generator: Adobe Illustrator 19.1.0, SVG Export Plug-In . SVG Version: 6.00 Build 0)  -->
<svg version="1.1" id="Layer_1" xmlns="http://www.w3.org/2000/svg" xmlns:xlink="http://www.w3.org/1999/xlink" x="0px" y="0px"
	 viewBox="0 0 9 9" style="enable-background:new 0 0 9 9;" xml:space="preserve">
<g>
	<path d="M1,1v2H0V1c0-0.3,0.1-0.5,0.3-0.7S0.7,0,1,0h2v1H1z M1,6v2h2v1H1C0.7,9,0.5,8.9,0.3,8.7S0,8.3,0,8V6H1z M3,3
		C3.5,2.6,4,2.4,4.6,2.4S5.7,2.6,6.1,3C6.5,3.5,6.8,4,6.8,4.6S6.5,5.7,6.1,6.1C5.7,6.5,5.2,6.8,4.6,6.8S3.5,6.5,3,6.1
		C2.6,5.7,2.4,5.2,2.4,4.6S2.6,3.5,3,3z M8,0c0.3,0,0.5,0.1,0.7,0.3S9,0.7,9,1v2H8V1H6V0H8z M8,8V6h1v2c0,0.3-0.1,0.5-0.3,0.7
		S8.3,9,8,9H6V8H8z"/>
</g>
</svg>
