<?xml version="1.0" encoding="utf-8"?>
<!-- Generator: Adobe Illustrator 19.1.0, SVG Export Plug-In . SVG Version: 6.00 Build 0)  -->
<svg version="1.1" id="Layer_1" xmlns="http://www.w3.org/2000/svg" xmlns:xlink="http://www.w3.org/1999/xlink" x="0px" y="0px"
	 viewBox="0 0 10.5 12.8" style="enable-background:new 0 0 10.5 12.8;" xml:space="preserve">
<style type="text/css">
	.st0{fill:#A8D3F1;}
</style>
<g>
	<path class="st0" d="M1.7,6.5L2.6,8l-1,0.5c-0.1,0-0.2,0-0.3,0S1.1,8.4,1.1,8.4L0.6,7.7c0-0.1-0.1-0.2,0-0.3s0.1-0.2,0.2-0.2
		L1.7,6.5z M1.8,1.9H1V1.2h0.8V1.9z M8,5.4L3.3,7.7L2.3,6.1l4.3-3L8,5.4z M4,3.4H3.3V2.7H4V3.4z M4.8,7.9l-1.5,3.8H4l1.5-3.8v4.5
		h0.8V8.7l1.5,3h0.8L6.3,7.2L4.8,7.9z M5.5,1.2H4.8V0.4h0.8V1.2z M9.9,4.4c0,0.1-0.1,0.2-0.2,0.2l-1,0.5L7.3,2.7l0.9-0.6
		C8.3,2,8.4,2,8.5,2s0.2,0.1,0.2,0.2l1.1,1.9C9.9,4.2,9.9,4.3,9.9,4.4z"/>
</g>
</svg>
